<?xml version="1.0" standalone="no"?>
<!DOCTYPE svg PUBLIC "-//W3C//DTD SVG 20010904//EN"
 "http://www.w3.org/TR/2001/REC-SVG-20010904/DTD/svg10.dtd">
<svg version="1.0" xmlns="http://www.w3.org/2000/svg"
 width="565.000000pt" height="565.000000pt" viewBox="0 0 565.000000 565.000000"
 preserveAspectRatio="xMidYMid meet">
<metadata>
Created by potrace 1.11, written by Peter Selinger 2001-2013
</metadata>
<g transform="translate(0.000000,565.000000) scale(0.100000,-0.100000)"
fill="#000000" stroke="none">
<path d="M1888 5473 l-3 -178 -359 -3 c-241 -1 -364 -6 -372 -13 -10 -8 -14
-57 -16 -188 l-3 -176 -360 -3 c-324 -2 -361 -4 -372 -19 -10 -13 -13 -179
-13 -750 l0 -733 -173 0 c-123 0 -178 -4 -190 -13 -16 -11 -17 -52 -15 -555
l3 -544 24 -19 c22 -18 44 -19 372 -19 l349 0 0 -174 c0 -145 3 -177 16 -190
13 -13 45 -16 190 -16 l174 0 0 -734 c0 -654 2 -736 16 -750 14 -14 95 -16
748 -16 697 0 734 1 749 18 14 16 17 45 17 191 l0 171 173 -2 172 -3 -4 -348
c-3 -308 -1 -350 13 -372 l16 -25 733 0 c443 0 738 4 747 10 12 7 16 43 20
182 l5 173 325 5 c322 5 325 5 365 29 22 14 42 26 45 29 3 2 7 74 10 160 l5
157 175 6 c96 3 176 6 178 7 1 1 2 173 2 382 l0 380 -177 2 -178 3 -3 172 -2
173 180 0 180 0 0 944 c0 745 -3 947 -12 953 -7 4 -87 10 -178 13 l-165 5 -3
545 c-1 359 -6 548 -13 555 -6 6 -83 12 -182 15 l-172 5 -5 177 c-3 101 -9
181 -15 187 -6 6 -83 12 -185 13 l-175 3 -3 178 -2 177 -1325 0 -1325 0 -2
-177z m838 33 c18 -14 19 -31 19 -508 0 -364 4 -517 14 -586 13 -86 12 -94 -4
-112 -24 -27 -50 -25 -73 5 -30 37 -42 220 -42 600 1 182 1 385 0 452 0 110 2
125 20 143 24 24 39 25 66 6z m180 -22 c3 -12 2 -28 -2 -35 -4 -7 -12 -269
-18 -583 -10 -537 -12 -571 -29 -574 -10 -2 -25 2 -34 9 -14 12 -15 63 -9 499
8 538 17 688 42 707 21 16 43 6 50 -23z m121 -91 c-3 -54 -16 -199 -28 -323
-15 -153 -23 -308 -25 -484 -3 -262 -9 -303 -38 -264 -17 24 -28 302 -16 438
19 228 40 459 50 540 5 47 10 106 10 131 0 51 5 59 33 59 19 0 19 -5 14 -97z
m96 -168 c-1 -250 -6 -287 -33 -270 -8 5 -9 75 -5 258 4 139 8 258 11 265 2 8
10 12 17 9 9 -3 12 -63 10 -262z m97 25 c1 -235 2 -216 -11 -203 -11 11 -22
389 -12 406 16 26 22 -29 23 -203z m72 -53 c2 -53 0 -97 -3 -97 -12 0 -21 179
-12 237 l8 58 2 -50 c2 -27 4 -94 5 -148z m45 1 c-2 -24 -4 -7 -4 37 0 44 2
63 4 43 2 -21 2 -57 0 -80z m-229 -611 c2 -242 2 -247 -18 -247 -16 0 -20 7
-20 33 -1 85 -1 234 -1 345 1 112 3 123 19 120 16 -3 17 -24 20 -251z m70 71
c-1 -73 2 -162 7 -197 6 -51 5 -63 -6 -59 -29 9 -37 388 -9 388 5 0 9 -60 8
-132z m86 -98 c-4 -49 -11 -90 -17 -90 -5 0 -7 13 -3 31 3 17 6 66 6 108 1 56
3 71 11 59 6 -11 7 -52 3 -108z m63 -12 c-2 -13 -4 -3 -4 22 0 25 2 35 4 23 2
-13 2 -33 0 -45z m-1575 -447 l33 -30 -2 -363 c-2 -413 -13 -683 -49 -1183
-46 -643 -52 -781 -38 -867 6 -33 11 -39 43 -47 74 -19 460 -36 733 -32 194 2
287 0 312 -9 80 -26 106 -132 47 -191 l-29 -29 -324 0 c-404 1 -736 20 -828
49 -151 48 -160 66 -167 324 -3 108 0 262 6 352 7 88 20 277 31 420 30 408 60
1121 60 1418 0 94 4 136 15 157 34 66 103 80 157 31z m2414 -1215 c29 -29 34
-41 34 -79 0 -80 -43 -112 -162 -120 -105 -7 -235 -85 -374 -224 -71 -71 -184
-216 -184 -236 0 -29 69 -46 314 -77 196 -25 390 -113 459 -208 76 -104 122
-242 115 -348 -12 -196 -266 -334 -613 -334 -233 0 -366 55 -421 175 -30 63
-30 103 -1 146 46 69 126 61 180 -18 41 -63 98 -77 276 -71 162 6 273 36 334
90 l37 33 -14 53 c-21 76 -61 139 -109 169 -62 39 -198 80 -312 93 -231 26
-319 53 -408 122 -55 44 -70 79 -65 153 5 78 43 158 133 277 76 100 225 246
305 299 158 105 244 137 374 138 65 1 70 -1 102 -33z"/>
</g>
</svg>
